<?xml version="1.0" encoding="UTF-8" standalone="no"?>
<!-- Created with Inkscape (http://www.inkscape.org/) -->

<svg
   width="50.799999mm"
   height="128.5mm"
   viewBox="0 0 50.799999 128.5"
   version="1.1"
   id="svg5"
   inkscape:version="1.1 (c4e8f9e, 2021-05-24)"
   sodipodi:docname="6x3Mult.svg"
   xmlns:inkscape="http://www.inkscape.org/namespaces/inkscape"
   xmlns:sodipodi="http://sodipodi.sourceforge.net/DTD/sodipodi-0.dtd"
   xmlns="http://www.w3.org/2000/svg"
   xmlns:svg="http://www.w3.org/2000/svg">
  <sodipodi:namedview
     id="namedview7"
     pagecolor="#d9d9d9"
     bordercolor="#666666"
     borderopacity="1.0"
     inkscape:pageshadow="2"
     inkscape:pageopacity="0"
     inkscape:pagecheckerboard="0"
     inkscape:document-units="mm"
     showgrid="false"
     width="50.8mm"
     inkscape:zoom="1.5041395"
     inkscape:cx="120.00217"
     inkscape:cy="244.65816"
     inkscape:window-width="1680"
     inkscape:window-height="1022"
     inkscape:window-x="0"
     inkscape:window-y="28"
     inkscape:window-maximized="0"
     inkscape:current-layer="svg5" />
  <defs
     id="defs2" />
  <g
     inkscape:groupmode="layer"
     id="layer4"
     inkscape:label="Background">
    <rect
       style="fill:#cccccc;stroke:#cccccc;stroke-width:0.264583"
       id="rect15928"
       width="51.012001"
       height="128.93723"
       x="0.17590338"
       y="-3.0789915e-06"
       rx="1.0554206" />
  </g>
  <g
     inkscape:label="Row1"
     inkscape:groupmode="layer"
     id="layer1">
    <rect
       style="fill:#4d4d4d;stroke:#000000;stroke-width:0.264583"
       id="rect4178"
       width="30.48"
       height="10.16"
       x="17.205151"
       y="18.353931"
       rx="1"
       inkscape:label="rect4178" />
    <g
       aria-label="OUT"
       id="text7389"
       style="font-size:10.5833px;line-height:1.25;stroke-width:0.264583">
      <path
         d="m 28.112603,30.904552 q 0,-0.463021 0.138492,-0.777213 0.103353,-0.23151 0.28112,-0.415478 0.179834,-0.183968 0.39274,-0.272851 0.283187,-0.11989 0.65319,-0.11989 0.669726,0 1.070735,0.415478 0.403076,0.415479 0.403076,1.155485 0,0.733804 -0.398942,1.149282 -0.398942,0.413412 -1.066601,0.413412 -0.675927,0 -1.074869,-0.411345 -0.398941,-0.413411 -0.398941,-1.13688 z m 0.630452,-0.02067 q 0,0.514697 0.237711,0.781347 0.237711,0.264583 0.60358,0.264583 0.365869,0 0.599446,-0.262516 0.235645,-0.264583 0.235645,-0.791682 0,-0.520898 -0.229444,-0.777213 -0.227376,-0.256315 -0.605647,-0.256315 -0.378271,0 -0.609781,0.260449 -0.23151,0.258382 -0.23151,0.781347 z"
         style="font-weight:bold;font-size:4.23333px;font-family:Arial;-inkscape-font-specification:'Arial, Bold'"
         id="path15391" />
      <path
         d="m 31.523244,29.370797 h 0.611849 v 1.641242 q 0,0.390673 0.02274,0.506428 0.03927,0.186035 0.186035,0.299723 0.148828,0.111621 0.405143,0.111621 0.260449,0 0.392741,-0.105419 0.132291,-0.107487 0.159163,-0.262516 0.02687,-0.15503 0.02687,-0.514697 v -1.676382 h 0.611848 v 1.591632 q 0,0.545703 -0.04961,0.771012 -0.04961,0.225309 -0.183968,0.380338 -0.132292,0.15503 -0.355534,0.248047 -0.223242,0.09095 -0.582909,0.09095 -0.434082,0 -0.659391,-0.09922 -0.223242,-0.101286 -0.353467,-0.260449 -0.130224,-0.16123 -0.171565,-0.33693 -0.05995,-0.260449 -0.05995,-0.768945 z"
         style="font-weight:bold;font-size:4.23333px;font-family:Arial;-inkscape-font-specification:'Arial, Bold'"
         id="path15393" />
      <path
         d="M 35.268749,32.4011 V 29.883426 H 34.36958 v -0.512629 h 2.408119 v 0.512629 H 35.880597 V 32.4011 Z"
         style="font-weight:bold;font-size:4.23333px;font-family:Arial;-inkscape-font-specification:'Arial, Bold'"
         id="path15395" />
    </g>
    <rect
       style="fill:#f2f2f2;stroke:#000000;stroke-width:0.482061"
       id="rect8327"
       width="10.16"
       height="10.16"
       x="4.412931"
       y="18.236437"
       rx="1.751864" />
    <g
       aria-label="IN"
       id="text8829"
       style="font-weight:bold;font-size:4.23333px;line-height:1.25;font-family:Arial;-inkscape-font-specification:'Arial, Bold';stroke-width:0.264583">
      <path
         d="m 7.6914922,32.336006 v -3.030303 h 0.6118484 v 3.030303 z"
         id="path15386" />
      <path
         d="m 8.8903843,32.336006 v -3.030303 h 0.595312 L 10.72593,31.32935 v -2.023647 h 0.56844 v 3.030303 H 10.680454 L 9.4588246,30.359901 v 1.976105 z"
         id="path15388" />
    </g>
  </g>
  <g
     inkscape:label="Row2"
     inkscape:groupmode="layer"
     id="g11757">
    <rect
       style="fill:#4d4d4d;stroke:#000000;stroke-width:0.264583"
       id="rect11745"
       width="30.48"
       height="10.16"
       x="17.205151"
       y="33.69978"
       rx="1"
       inkscape:label="rect4178" />
    <g
       aria-label="OUT"
       id="text11749"
       style="font-size:10.5833px;line-height:1.25;stroke-width:0.264583">
      <path
         d="m 28.112603,46.2504 q 0,-0.46302 0.138492,-0.777213 0.103353,-0.23151 0.28112,-0.415478 0.179834,-0.183968 0.39274,-0.272851 0.283187,-0.11989 0.65319,-0.11989 0.669726,0 1.070735,0.415479 0.403076,0.415478 0.403076,1.155484 0,0.733804 -0.398942,1.149283 -0.398942,0.413411 -1.066601,0.413411 -0.675927,0 -1.074869,-0.411344 -0.398941,-0.413412 -0.398941,-1.136881 z m 0.630452,-0.02067 q 0,0.514697 0.237711,0.781347 0.237711,0.264584 0.60358,0.264584 0.365869,0 0.599446,-0.262516 0.235645,-0.264584 0.235645,-0.791683 0,-0.520898 -0.229444,-0.777213 -0.227376,-0.256315 -0.605647,-0.256315 -0.378271,0 -0.609781,0.260449 -0.23151,0.258382 -0.23151,0.781347 z"
         style="font-weight:bold;font-size:4.23333px;font-family:Arial;-inkscape-font-specification:'Arial, Bold'"
         id="path15379" />
      <path
         d="m 31.523244,44.716645 h 0.611849 v 1.641242 q 0,0.390673 0.02274,0.506429 0.03927,0.186035 0.186035,0.299723 0.148828,0.111621 0.405143,0.111621 0.260449,0 0.392741,-0.10542 0.132291,-0.107487 0.159163,-0.262516 0.02687,-0.155029 0.02687,-0.514697 v -1.676382 h 0.611848 v 1.591633 q 0,0.545702 -0.04961,0.771011 -0.04961,0.225309 -0.183968,0.380339 -0.132292,0.155029 -0.355534,0.248046 -0.223242,0.09095 -0.582909,0.09095 -0.434082,0 -0.659391,-0.09922 -0.223242,-0.101286 -0.353467,-0.260449 -0.130224,-0.16123 -0.171565,-0.33693 -0.05995,-0.260449 -0.05995,-0.768945 z"
         style="font-weight:bold;font-size:4.23333px;font-family:Arial;-inkscape-font-specification:'Arial, Bold'"
         id="path15381" />
      <path
         d="M 35.268749,47.746948 V 45.229275 H 34.36958 v -0.51263 h 2.408119 v 0.51263 h -0.897102 v 2.517673 z"
         style="font-weight:bold;font-size:4.23333px;font-family:Arial;-inkscape-font-specification:'Arial, Bold'"
         id="path15383" />
    </g>
    <rect
       style="fill:#f2f2f2;stroke:#000000;stroke-width:0.482061"
       id="rect11751"
       width="10.16"
       height="10.16"
       x="4.412931"
       y="33.582283"
       rx="1.751864" />
    <g
       aria-label="IN"
       id="text11755"
       style="font-weight:bold;font-size:4.23333px;line-height:1.25;font-family:Arial;-inkscape-font-specification:'Arial, Bold';stroke-width:0.264583">
      <path
         d="m 7.6914922,47.681854 v -3.030303 h 0.6118484 v 3.030303 z"
         id="path15374" />
      <path
         d="m 8.8903843,47.681854 v -3.030303 h 0.595312 l 1.2402337,2.023647 v -2.023647 h 0.56844 v 3.030303 H 10.680454 L 9.4588246,45.705749 v 1.976105 z"
         id="path15376" />
    </g>
  </g>
  <g
     inkscape:label="Row3"
     inkscape:groupmode="layer"
     id="g13527">
    <rect
       style="fill:#4d4d4d;stroke:#000000;stroke-width:0.264583"
       id="rect13515"
       width="30.48"
       height="10.16"
       x="17.205151"
       y="49.045628"
       rx="1"
       inkscape:label="rect4178" />
    <g
       aria-label="OUT"
       id="text13519"
       style="font-size:10.5833px;line-height:1.25;stroke-width:0.264583">
      <path
         d="m 28.112603,61.596248 q 0,-0.46302 0.138492,-0.777213 0.103353,-0.23151 0.28112,-0.415478 0.179834,-0.183968 0.39274,-0.272851 0.283187,-0.11989 0.65319,-0.11989 0.669726,0 1.070735,0.415479 0.403076,0.415478 0.403076,1.155484 0,0.733804 -0.398942,1.149283 -0.398942,0.413411 -1.066601,0.413411 -0.675927,0 -1.074869,-0.411344 -0.398941,-0.413411 -0.398941,-1.136881 z m 0.630452,-0.02067 q 0,0.514696 0.237711,0.781347 0.237711,0.264583 0.60358,0.264583 0.365869,0 0.599446,-0.262516 0.235645,-0.264584 0.235645,-0.791683 0,-0.520898 -0.229444,-0.777213 -0.227376,-0.256314 -0.605647,-0.256314 -0.378271,0 -0.609781,0.260449 -0.23151,0.258381 -0.23151,0.781347 z"
         style="font-weight:bold;font-size:4.23333px;font-family:Arial;-inkscape-font-specification:'Arial, Bold'"
         id="path15367" />
      <path
         d="m 31.523244,60.062493 h 0.611849 v 1.641242 q 0,0.390673 0.02274,0.506429 0.03927,0.186035 0.186035,0.299723 0.148828,0.111621 0.405143,0.111621 0.260449,0 0.392741,-0.10542 0.132291,-0.107487 0.159163,-0.262516 0.02687,-0.155029 0.02687,-0.514697 v -1.676382 h 0.611848 v 1.591633 q 0,0.545702 -0.04961,0.771011 -0.04961,0.225309 -0.183968,0.380339 -0.132292,0.155029 -0.355534,0.248046 -0.223242,0.09095 -0.582909,0.09095 -0.434082,0 -0.659391,-0.09922 -0.223242,-0.101286 -0.353467,-0.260449 -0.130224,-0.16123 -0.171565,-0.33693 -0.05995,-0.260449 -0.05995,-0.768945 z"
         style="font-weight:bold;font-size:4.23333px;font-family:Arial;-inkscape-font-specification:'Arial, Bold'"
         id="path15369" />
      <path
         d="M 35.268749,63.092796 V 60.575123 H 34.36958 v -0.51263 h 2.408119 v 0.51263 h -0.897102 v 2.517673 z"
         style="font-weight:bold;font-size:4.23333px;font-family:Arial;-inkscape-font-specification:'Arial, Bold'"
         id="path15371" />
    </g>
    <rect
       style="fill:#f2f2f2;stroke:#000000;stroke-width:0.482061"
       id="rect13521"
       width="10.16"
       height="10.16"
       x="4.412931"
       y="48.928131"
       rx="1.751864" />
    <g
       aria-label="IN"
       id="text13525"
       style="font-weight:bold;font-size:4.23333px;line-height:1.25;font-family:Arial;-inkscape-font-specification:'Arial, Bold';stroke-width:0.264583">
      <path
         d="m 7.6914922,63.027702 v -3.030303 h 0.6118484 v 3.030303 z"
         id="path15362" />
      <path
         d="m 8.8903843,63.027702 v -3.030303 h 0.595312 l 1.2402337,2.023647 v -2.023647 h 0.56844 v 3.030303 H 10.680454 L 9.4588246,61.051597 v 1.976105 z"
         id="path15364" />
    </g>
  </g>
  <g
     inkscape:label="Row4"
     inkscape:groupmode="layer"
     id="g13701">
    <rect
       style="fill:#4d4d4d;stroke:#000000;stroke-width:0.264583"
       id="rect13689"
       width="30.48"
       height="10.16"
       x="17.205151"
       y="64.236946"
       rx="1"
       inkscape:label="rect4178" />
    <g
       aria-label="OUT"
       id="text13693"
       style="font-size:10.5833px;line-height:1.25;stroke-width:0.264583">
      <path
         d="m 28.112603,76.78757 q 0,-0.46302 0.138492,-0.777212 0.103353,-0.231511 0.28112,-0.415479 0.179834,-0.183968 0.39274,-0.272851 0.283187,-0.119889 0.65319,-0.119889 0.669726,0 1.070735,0.415478 0.403076,0.415478 0.403076,1.155484 0,0.733805 -0.398942,1.149283 -0.398942,0.413411 -1.066601,0.413411 -0.675927,0 -1.074869,-0.411344 -0.398941,-0.413411 -0.398941,-1.136881 z m 0.630452,-0.02067 q 0,0.514697 0.237711,0.781347 0.237711,0.264583 0.60358,0.264583 0.365869,0 0.599446,-0.262516 0.235645,-0.264583 0.235645,-0.791682 0,-0.520898 -0.229444,-0.777213 -0.227376,-0.256315 -0.605647,-0.256315 -0.378271,0 -0.609781,0.260449 -0.23151,0.258382 -0.23151,0.781347 z"
         style="font-weight:bold;font-size:4.23333px;font-family:Arial;-inkscape-font-specification:'Arial, Bold'"
         id="path15355" />
      <path
         d="m 31.523244,75.253815 h 0.611849 v 1.641242 q 0,0.390674 0.02274,0.506429 0.03927,0.186035 0.186035,0.299723 0.148828,0.111621 0.405143,0.111621 0.260449,0 0.392741,-0.10542 0.132291,-0.107487 0.159163,-0.262516 0.02687,-0.155029 0.02687,-0.514697 v -1.676382 h 0.611848 v 1.591633 q 0,0.545703 -0.04961,0.771012 -0.04961,0.225309 -0.183968,0.380338 -0.132292,0.155029 -0.355534,0.248047 -0.223242,0.09095 -0.582909,0.09095 -0.434082,0 -0.659391,-0.09922 -0.223242,-0.101285 -0.353467,-0.260449 -0.130224,-0.16123 -0.171565,-0.33693 -0.05995,-0.260449 -0.05995,-0.768944 z"
         style="font-weight:bold;font-size:4.23333px;font-family:Arial;-inkscape-font-specification:'Arial, Bold'"
         id="path15357" />
      <path
         d="M 35.268749,78.284119 V 75.766445 H 34.36958 v -0.51263 h 2.408119 v 0.51263 h -0.897102 v 2.517674 z"
         style="font-weight:bold;font-size:4.23333px;font-family:Arial;-inkscape-font-specification:'Arial, Bold'"
         id="path15359" />
    </g>
    <rect
       style="fill:#f2f2f2;stroke:#000000;stroke-width:0.482061"
       id="rect13695"
       width="10.16"
       height="10.16"
       x="4.412931"
       y="64.119446"
       rx="1.751864" />
    <g
       aria-label="IN"
       id="text13699"
       style="font-weight:bold;font-size:4.23333px;line-height:1.25;font-family:Arial;-inkscape-font-specification:'Arial, Bold';stroke-width:0.264583">
      <path
         d="m 7.6914922,78.219025 v -3.030304 h 0.6118484 v 3.030304 z"
         id="path15350" />
      <path
         d="m 8.8903843,78.219025 v -3.030304 h 0.595312 l 1.2402337,2.023648 v -2.023648 h 0.56844 v 3.030304 H 10.680454 L 9.4588246,76.24292 v 1.976105 z"
         id="path15352" />
    </g>
  </g>
  <g
     inkscape:label="Row5"
     inkscape:groupmode="layer"
     id="g13715">
    <rect
       style="fill:#4d4d4d;stroke:#000000;stroke-width:0.264583"
       id="rect13703"
       width="30.48"
       height="10.16"
       x="17.205151"
       y="79.430527"
       rx="1"
       inkscape:label="rect4178" />
    <g
       aria-label="OUT"
       id="text13707"
       style="font-size:10.5833px;line-height:1.25;stroke-width:0.264583">
      <path
         d="m 28.112603,91.981151 q 0,-0.46302 0.138492,-0.777213 0.103353,-0.23151 0.28112,-0.415478 0.179834,-0.183968 0.39274,-0.272851 0.283187,-0.11989 0.65319,-0.11989 0.669726,0 1.070735,0.415479 0.403076,0.415478 0.403076,1.155484 0,0.733804 -0.398942,1.149283 -0.398942,0.413411 -1.066601,0.413411 -0.675927,0 -1.074869,-0.411344 -0.398941,-0.413411 -0.398941,-1.136881 z m 0.630452,-0.02067 q 0,0.514696 0.237711,0.781347 0.237711,0.264583 0.60358,0.264583 0.365869,0 0.599446,-0.262516 0.235645,-0.264584 0.235645,-0.791683 0,-0.520898 -0.229444,-0.777213 -0.227376,-0.256314 -0.605647,-0.256314 -0.378271,0 -0.609781,0.260449 -0.23151,0.258381 -0.23151,0.781347 z"
         style="font-weight:bold;font-size:4.23333px;font-family:Arial;-inkscape-font-specification:'Arial, Bold'"
         id="path15343" />
      <path
         d="m 31.523244,90.447396 h 0.611849 v 1.641242 q 0,0.390673 0.02274,0.506429 0.03927,0.186035 0.186035,0.299723 0.148828,0.111621 0.405143,0.111621 0.260449,0 0.392741,-0.10542 0.132291,-0.107487 0.159163,-0.262516 0.02687,-0.155029 0.02687,-0.514697 v -1.676382 h 0.611848 v 1.591633 q 0,0.545702 -0.04961,0.771011 -0.04961,0.225309 -0.183968,0.380339 -0.132292,0.155029 -0.355534,0.248046 -0.223242,0.09095 -0.582909,0.09095 -0.434082,0 -0.659391,-0.09922 -0.223242,-0.101286 -0.353467,-0.260449 -0.130224,-0.16123 -0.171565,-0.33693 -0.05995,-0.260449 -0.05995,-0.768945 z"
         style="font-weight:bold;font-size:4.23333px;font-family:Arial;-inkscape-font-specification:'Arial, Bold'"
         id="path15345" />
      <path
         d="M 35.268749,93.477699 V 90.960026 H 34.36958 v -0.51263 h 2.408119 v 0.51263 h -0.897102 v 2.517673 z"
         style="font-weight:bold;font-size:4.23333px;font-family:Arial;-inkscape-font-specification:'Arial, Bold'"
         id="path15347" />
    </g>
    <rect
       style="fill:#f2f2f2;stroke:#000000;stroke-width:0.482061"
       id="rect13709"
       width="10.16"
       height="10.16"
       x="4.412931"
       y="79.313026"
       rx="1.751864" />
    <g
       aria-label="IN"
       id="text13713"
       style="font-weight:bold;font-size:4.23333px;line-height:1.25;font-family:Arial;-inkscape-font-specification:'Arial, Bold';stroke-width:0.264583">
      <path
         d="m 7.6914922,93.412605 v -3.030303 h 0.6118484 v 3.030303 z"
         id="path15338" />
      <path
         d="m 8.8903843,93.412605 v -3.030303 h 0.595312 l 1.2402337,2.023647 v -2.023647 h 0.56844 v 3.030303 H 10.680454 L 9.4588246,91.4365 v 1.976105 z"
         id="path15340" />
    </g>
  </g>
  <g
     inkscape:label="Row6"
     inkscape:groupmode="layer"
     id="g13729">
    <rect
       style="fill:#4d4d4d;stroke:#000000;stroke-width:0.264583"
       id="rect13717"
       width="30.48"
       height="10.16"
       x="17.205151"
       y="94.882202"
       rx="1"
       inkscape:label="rect4178" />
    <g
       aria-label="OUT"
       id="text13721"
       style="font-size:10.5833px;line-height:1.25;stroke-width:0.264583">
      <path
         d="m 28.112603,107.43282 q 0,-0.46302 0.138492,-0.77721 0.103353,-0.23151 0.28112,-0.41548 0.179834,-0.18397 0.39274,-0.27285 0.283187,-0.11989 0.65319,-0.11989 0.669726,0 1.070735,0.41548 0.403076,0.41547 0.403076,1.15548 0,0.7338 -0.398942,1.14928 -0.398942,0.41341 -1.066601,0.41341 -0.675927,0 -1.074869,-0.41134 -0.398941,-0.41341 -0.398941,-1.13688 z m 0.630452,-0.0207 q 0,0.5147 0.237711,0.78135 0.237711,0.26458 0.60358,0.26458 0.365869,0 0.599446,-0.26252 0.235645,-0.26458 0.235645,-0.79168 0,-0.5209 -0.229444,-0.77721 -0.227376,-0.25632 -0.605647,-0.25632 -0.378271,0 -0.609781,0.26045 -0.23151,0.25838 -0.23151,0.78135 z"
         style="font-weight:bold;font-size:4.23333px;font-family:Arial;-inkscape-font-specification:'Arial, Bold'"
         id="path15331" />
      <path
         d="m 31.523244,105.89906 h 0.611849 v 1.64125 q 0,0.39067 0.02274,0.50642 0.03927,0.18604 0.186035,0.29973 0.148828,0.11162 0.405143,0.11162 0.260449,0 0.392741,-0.10542 0.132291,-0.10749 0.159163,-0.26252 0.02687,-0.15503 0.02687,-0.51469 v -1.67639 h 0.611848 v 1.59164 q 0,0.5457 -0.04961,0.77101 -0.04961,0.22531 -0.183968,0.38034 -0.132292,0.15503 -0.355534,0.24804 -0.223242,0.0909 -0.582909,0.0909 -0.434082,0 -0.659391,-0.0992 -0.223242,-0.10128 -0.353467,-0.26044 -0.130224,-0.16123 -0.171565,-0.33693 -0.05995,-0.26045 -0.05995,-0.76895 z"
         style="font-weight:bold;font-size:4.23333px;font-family:Arial;-inkscape-font-specification:'Arial, Bold'"
         id="path15333" />
      <path
         d="m 35.268749,108.92937 v -2.51768 H 34.36958 v -0.51263 h 2.408119 v 0.51263 h -0.897102 v 2.51768 z"
         style="font-weight:bold;font-size:4.23333px;font-family:Arial;-inkscape-font-specification:'Arial, Bold'"
         id="path15335" />
    </g>
    <rect
       style="fill:#f2f2f2;stroke:#000000;stroke-width:0.482061"
       id="rect13723"
       width="10.16"
       height="10.16"
       x="4.412931"
       y="94.764702"
       rx="1.751864" />
    <g
       aria-label="IN"
       id="text13727"
       style="font-weight:bold;font-size:4.23333px;line-height:1.25;font-family:Arial;-inkscape-font-specification:'Arial, Bold';stroke-width:0.264583">
      <path
         d="m 7.6914922,108.86428 v -3.0303 h 0.6118484 v 3.0303 z"
         id="path15326" />
      <path
         d="m 8.8903843,108.86428 v -3.0303 h 0.595312 l 1.2402337,2.02364 v -2.02364 h 0.56844 v 3.0303 h -0.613916 l -1.2216294,-1.9761 v 1.9761 z"
         id="path15328" />
    </g>
  </g>
  <g
     inkscape:groupmode="layer"
     id="layer3"
     inkscape:label="components"
     style="display:none">
    <circle
       style="fill:#00ff00;stroke:#000000;stroke-width:0.264583"
       id="path14158"
       cx="9.4929314"
       cy="23.316437"
       r="5"
       inkscape:label="input_0" />
    <circle
       style="fill:#00ff00;stroke:#000000;stroke-width:0.264583"
       id="path14182"
       cx="9.4929314"
       cy="38.662285"
       r="5"
       inkscape:label="input_1" />
    <circle
       style="fill:#00ff00;stroke:#000000;stroke-width:0.264583"
       id="path14184"
       cx="9.4929314"
       cy="54.008129"
       r="5"
       inkscape:label="input_2" />
    <circle
       style="fill:#00ff00;stroke:#000000;stroke-width:0.264583"
       id="path14186"
       cx="9.4929314"
       cy="69.199448"
       r="5"
       inkscape:label="input_3" />
    <circle
       style="fill:#00ff00;stroke:#000000;stroke-width:0.264583"
       id="path14188"
       cx="9.4929314"
       cy="84.393021"
       r="5"
       inkscape:label="input_4" />
    <circle
       style="fill:#00ff00;stroke:#000000;stroke-width:0.264583"
       id="path14190"
       cx="9.4929314"
       cy="99.844696"
       r="5"
       inkscape:label="input_5" />
    <circle
       style="fill:#0000ff;stroke:#000000;stroke-width:0.264583"
       id="path14692"
       cx="22.313389"
       cy="23.455515"
       r="5"
       inkscape:label="output_0_0" />
    <circle
       style="fill:#0000ff;stroke:#000000;stroke-width:0.264583"
       id="path14692-4"
       cx="32.360928"
       cy="23.406752"
       r="5"
       inkscape:label="output_0_1" />
    <circle
       style="fill:#0000ff;stroke:#000000;stroke-width:0.264583"
       id="path14692-8"
       cx="42.523392"
       cy="23.447477"
       r="5"
       inkscape:label="output_0_2" />
    <circle
       style="fill:#0000ff;stroke:#000000;stroke-width:0.264583"
       id="path14692-0"
       cx="22.180946"
       cy="38.797344"
       r="5"
       inkscape:label="output_1_0" />
    <circle
       style="fill:#0000ff;stroke:#000000;stroke-width:0.264583"
       id="path14692-4-0"
       cx="32.228485"
       cy="38.748581"
       r="5"
       inkscape:label="output_1_1" />
    <circle
       style="fill:#0000ff;stroke:#000000;stroke-width:0.264583"
       id="path14692-8-1"
       cx="42.390949"
       cy="38.789307"
       r="5"
       inkscape:label="output_1_2" />
    <circle
       style="fill:#0000ff;stroke:#000000;stroke-width:0.264583"
       id="path14692-3"
       cx="22.258043"
       cy="54.107998"
       r="5"
       inkscape:label="output_2_0" />
    <circle
       style="fill:#0000ff;stroke:#000000;stroke-width:0.264583"
       id="path14692-4-2"
       cx="32.305584"
       cy="54.059235"
       r="5"
       inkscape:label="output_2_1" />
    <circle
       style="fill:#0000ff;stroke:#000000;stroke-width:0.264583"
       id="path14692-8-7"
       cx="42.468048"
       cy="54.09996"
       r="5"
       inkscape:label="output_2_2" />
    <circle
       style="fill:#0000ff;stroke:#000000;stroke-width:0.264583"
       id="path14692-6"
       cx="22.308704"
       cy="69.415703"
       r="5"
       inkscape:label="output_3_0" />
    <circle
       style="fill:#0000ff;stroke:#000000;stroke-width:0.264583"
       id="path14692-4-9"
       cx="32.356243"
       cy="69.366943"
       r="5"
       inkscape:label="output_3_1" />
    <circle
       style="fill:#0000ff;stroke:#000000;stroke-width:0.264583"
       id="path14692-8-0"
       cx="42.518707"
       cy="69.407669"
       r="5"
       inkscape:label="output_3_2" />
    <circle
       style="fill:#0000ff;stroke:#000000;stroke-width:0.264583"
       id="path14692-9"
       cx="22.317581"
       cy="84.506134"
       r="5"
       inkscape:label="output_4_0" />
    <circle
       style="fill:#0000ff;stroke:#000000;stroke-width:0.264583"
       id="path14692-4-7"
       cx="32.365131"
       cy="84.457375"
       r="5"
       inkscape:label="output_4_1" />
    <circle
       style="fill:#0000ff;stroke:#000000;stroke-width:0.264583"
       id="path14692-8-16"
       cx="42.527596"
       cy="84.4981"
       r="5"
       inkscape:label="output_4_2" />
    <circle
       style="fill:#0000ff;stroke:#000000;stroke-width:0.264583"
       id="path14692-98"
       cx="22.315498"
       cy="99.954468"
       r="5"
       inkscape:label="output_5_0" />
    <circle
       style="fill:#0000ff;stroke:#000000;stroke-width:0.264583"
       id="path14692-4-6"
       cx="32.363037"
       cy="99.905708"
       r="5"
       inkscape:label="output_5_1" />
    <circle
       style="fill:#0000ff;stroke:#000000;stroke-width:0.264583"
       id="path14692-8-76"
       cx="42.525501"
       cy="99.946434"
       r="5"
       inkscape:label="output_5_2" />
  </g>
  <g
     id="g3686"
     transform="matrix(0.27690269,0,0,0.27690269,24.698949,112.56379)">
    <g
       id="g3630" />
    <g
       id="g3636">
      <g
         id="g3634" />
    </g>
    <g
       id="g3642">
      <g
         id="g3640" />
    </g>
    <g
       id="g3648">
      <g
         id="g3646" />
    </g>
    <g
       id="g3654">
      <g
         id="g3652" />
    </g>
    <g
       id="g3660">
      <g
         id="g3658" />
    </g>
    <g
       id="g3666">
      <g
         id="g3664" />
    </g>
    <g
       id="g3672">
      <g
         id="g3670" />
    </g>
    <g
       id="g3678">
      <g
         id="g3676" />
    </g>
    <g
       id="g3684">
      <g
         id="g3682">
        <path
           id="polygon3680"
           d="M 7,31 H 5 v -8.04 l 2,-0.54 z m 20,0 h -2 v -8.58 l 2,0.54 z M 12.13,21.05 14.11,20.52 15,20.28 v -0.53 l 0.66,0.17 0.33,0.09 H 16 l 0.58,0.16 0.42,0.11 0.89,0.24 1.98,0.53 5.13,1.37 2,0.54 V 24 L 26.74,24.97 25,24.5 21,23.43 19.42,23.01 19.4,23 16.26,22.16 16,22.09 15.67,22 15.56,21.97 15,21.82 14.03,21.56 Z M 17.97,21.56 17,21.82 16.44,21.97 16.33,22 16,22.09 15.75,22.16 H 15.74 L 12.6,23 12.58,23.01 H 12.57 L 11,23.43 7,24.5 5.26,24.97 5,24 v -1.04 l 2,-0.54 5.13,-1.37 1.98,-0.53 0.89,-0.24 0.42,-0.11 0.57,-0.16 H 16 l 0.33,-0.09 h 0.01 L 17,19.75 v 0.53 l 0.89,0.24 1.98,0.53 z m 1.45,1.45 1.58,1.57 V 31 h -2 v -8 h 2 v 0.43 z m -3.08,-3.09 0.24,0.25 0.42,0.42 0.41,0.41 0.56,0.56 1.45,1.44 v 0.01 L 21,24.58 V 26 L 20.29,26.71 19,25.42 16,22.41 15.75,22.16 H 15.74 L 15.59,22 14.11,20.52 15,20.28 v -1.01 l 0.34,-0.34 0.99,0.99 z M 13,31 H 11 V 24.58 L 12.57,23.01 11,23.43 V 23 h 2 z m 2,-10.41 0.42,-0.42 0.24,-0.25 0.34,-0.33 0.66,-0.66 0.34,0.34 v 1.01 L 17.89,20.52 16.41,22 16.26,22.16 16,22.41 13,25.42 11.71,26.71 11,26 v -1.42 l 1.57,-1.57 h 0.01 V 23 L 14.03,21.56 14.59,21 Z M 15,9 h 2 v 13 h -2 z m 1,1.083 -4,-2.31 V 3.155 l 4,-2.31 4,2.31 V 7.774 Z M 14,6.619 16,7.773 18,6.619 V 4.309 L 16,3.155 14,4.309 Z m 24.488573,24.381804 h -6.803209 q -1.719915,0 -1.719915,-1.758133 V 0.84499999 h 4.357112 V 26.452591 q 0,0.420423 0.382203,0.420423 h 3.783809 z M 2.5623459,29.892416 q 0,0.687965 0.1528696,1.108388 H -1.6801069 Q -1.8329881,30.695042 -1.8329881,30.121738 V 19.955142 q 0,-1.33771 -1.1466086,-1.33771 H -4.9288309 V 31.000804 H -9.2859435 V 2.6031331 q 0,-1.75813311 1.7199129,-1.75813311 h 6.3063468 q 3.7073685,0 3.7073685,4.93041681 v 7.5293962 q 0,2.484318 -1.7199147,3.401605 1.8345759,0.917287 1.8345759,3.592707 z M -2.9795967,14.566082 q 1.1083883,0 1.1083883,-1.33771 V 6.4251617 q 0,-1.4141506 -0.9555071,-1.4141506 H -4.546628 q -0.3822029,0 -0.3822029,0.4204231 V 14.566082 Z M -12.88642,31.000804 h -4.357113 V 0.84499999 h 4.357113 z m -9.913395,-1.567031 q -0.152881,1.567031 -1.528811,1.567031 h -4.892196 q -1.567032,0 -1.681693,-1.567031 L -33.425054,0.84499999 h 4.624655 l 1.567031,25.56937101 q 0,0.267541 0.229323,0.267541 h 0.267542 q 0.267541,0 0.267541,-0.267541 L -24.90193,0.84499999 h 4.624654 z" />
      </g>
    </g>
  </g>
  <g
     aria-label="MULT"
     id="text5689"
     style="font-size:14.1111px;line-height:1.25;font-family:Bitcrusher;-inkscape-font-specification:'Bitcrusher, Normal';letter-spacing:0.529167px;stroke-width:0.264583">
    <path
       d="m 22.003315,13.961658 h -1.53811 V 4.8882201 q 0,-0.5221107 -0.366889,-0.5221107 H 19.533872 V 13.961658 H 18.052207 V 4.3661094 h -0.832555 q -0.09878,0 -0.09878,0.098778 v 9.4967706 h -1.56633 V 3.3077769 q 0,-0.4797774 0.479777,-0.4797774 h 4.61433 q 1.354666,0 1.354666,1.8203319 z"
       id="path6870" />
    <path
       d="m 27.541261,12.155437 q 0,1.806221 -1.382888,1.806221 h -1.636887 q -1.354666,0 -1.354666,-1.806221 V 2.8279995 h 1.608665 v 9.0875485 q 0,0.522111 0.366889,0.522111 h 0.423333 q 0.352777,0 0.352777,-0.522111 V 2.8279995 h 1.622777 z"
       id="path6872" />
    <path
       d="m 31.831256,13.961658 h -2.511775 q -0.635,0 -0.635,-0.649111 V 2.8279995 h 1.608665 v 9.4544375 q 0,0.155222 0.141111,0.155222 h 1.396999 z"
       id="path6874" />
    <path
       d="M 34.595711,13.961658 H 32.958823 V 4.3661094 H 31.745268 V 2.8279995 h 4.063997 v 1.5381099 h -1.213554 z"
       id="path6876" />
  </g>
</svg>
