<?xml version="1.0" encoding="UTF-8" standalone="no"?>
<!-- Created with Inkscape (http://www.inkscape.org/) -->

<svg
   width="19.913076mm"
   height="8.3502226mm"
   viewBox="0 0 19.913078 8.3502232"
   version="1.1"
   id="svg5"
   inkscape:version="1.1 (c4e8f9e, 2021-05-24)"
   sodipodi:docname="logo.svg"
   xmlns:inkscape="http://www.inkscape.org/namespaces/inkscape"
   xmlns:sodipodi="http://sodipodi.sourceforge.net/DTD/sodipodi-0.dtd"
   xmlns="http://www.w3.org/2000/svg"
   xmlns:svg="http://www.w3.org/2000/svg">
  <sodipodi:namedview
     id="namedview7"
     pagecolor="#ffffff"
     bordercolor="#999999"
     borderopacity="1"
     inkscape:pageshadow="0"
     inkscape:pageopacity="0"
     inkscape:pagecheckerboard="0"
     inkscape:document-units="px"
     showgrid="false"
     units="mm"
     fit-margin-top="0"
     fit-margin-left="0"
     fit-margin-right="0"
     fit-margin-bottom="0"
     width="24.668mm"
     inkscape:zoom="3.5572732"
     inkscape:cx="43.432144"
     inkscape:cy="81.242003"
     inkscape:window-width="1680"
     inkscape:window-height="1022"
     inkscape:window-x="0"
     inkscape:window-y="28"
     inkscape:window-maximized="0"
     inkscape:current-layer="layer3" />
  <defs
     id="defs2" />
  <g
     inkscape:label="Layer 1"
     inkscape:groupmode="layer"
     id="layer1"
     transform="translate(-0.84785923,-0.61728872)"
     style="display:inline">
    <g
       aria-label="VIRAL"
       id="text1243"
       style="font-weight:bold;font-stretch:semi-condensed;font-size:10.5833px;line-height:1.25;font-family:Bitcrusher;-inkscape-font-specification:'Bitcrusher, Bold Semi-Condensed';letter-spacing:0.529167px;stroke-width:0.264583" />
  </g>
  <g
     inkscape:groupmode="layer"
     id="layer3"
     inkscape:label="Layer 3">
    <g
       id="g3686"
       transform="matrix(0.27690269,0,0,0.27690269,9.2554873,-0.23398277)">
      <g
         id="g3630" />
      <g
         id="g3636">
        <g
           id="g3634" />
      </g>
      <g
         id="g3642">
        <g
           id="g3640" />
      </g>
      <g
         id="g3648">
        <g
           id="g3646" />
      </g>
      <g
         id="g3654">
        <g
           id="g3652" />
      </g>
      <g
         id="g3660">
        <g
           id="g3658" />
      </g>
      <g
         id="g3666">
        <g
           id="g3664" />
      </g>
      <g
         id="g3672">
        <g
           id="g3670" />
      </g>
      <g
         id="g3678">
        <g
           id="g3676" />
      </g>
      <g
         id="g3684">
        <g
           id="g3682">
          <path
             id="polygon3680"
             d="M 7,31 H 5 v -8.04 l 2,-0.54 z m 20,0 h -2 v -8.58 l 2,0.54 z M 12.13,21.05 14.11,20.52 15,20.28 v -0.53 l 0.66,0.17 0.33,0.09 H 16 l 0.58,0.16 0.42,0.11 0.89,0.24 1.98,0.53 5.13,1.37 2,0.54 V 24 L 26.74,24.97 25,24.5 21,23.43 19.42,23.01 19.4,23 16.26,22.16 16,22.09 15.67,22 15.56,21.97 15,21.82 14.03,21.56 Z M 17.97,21.56 17,21.82 16.44,21.97 16.33,22 16,22.09 15.75,22.16 H 15.74 L 12.6,23 12.58,23.01 H 12.57 L 11,23.43 7,24.5 5.26,24.97 5,24 v -1.04 l 2,-0.54 5.13,-1.37 1.98,-0.53 0.89,-0.24 0.42,-0.11 0.57,-0.16 H 16 l 0.33,-0.09 h 0.01 L 17,19.75 v 0.53 l 0.89,0.24 1.98,0.53 z m 1.45,1.45 1.58,1.57 V 31 h -2 v -8 h 2 v 0.43 z m -3.08,-3.09 0.24,0.25 0.42,0.42 0.41,0.41 0.56,0.56 1.45,1.44 v 0.01 L 21,24.58 V 26 L 20.29,26.71 19,25.42 16,22.41 15.75,22.16 H 15.74 L 15.59,22 14.11,20.52 15,20.28 v -1.01 l 0.34,-0.34 0.99,0.99 z M 13,31 H 11 V 24.58 L 12.57,23.01 11,23.43 V 23 h 2 z m 2,-10.41 0.42,-0.42 0.24,-0.25 0.34,-0.33 0.66,-0.66 0.34,0.34 v 1.01 L 17.89,20.52 16.41,22 16.26,22.16 16,22.41 13,25.42 11.71,26.71 11,26 v -1.42 l 1.57,-1.57 h 0.01 V 23 L 14.03,21.56 14.59,21 Z M 15,9 h 2 v 13 h -2 z m 1,1.083 -4,-2.31 V 3.155 l 4,-2.31 4,2.31 V 7.774 Z M 14,6.619 16,7.773 18,6.619 V 4.309 L 16,3.155 14,4.309 Z m 24.488573,24.381804 h -6.803209 q -1.719915,0 -1.719915,-1.758133 V 0.84499999 h 4.357112 V 26.452591 q 0,0.420423 0.382203,0.420423 h 3.783809 z M 2.5623459,29.892416 q 0,0.687965 0.1528696,1.108388 H -1.6801069 Q -1.8329881,30.695042 -1.8329881,30.121738 V 19.955142 q 0,-1.33771 -1.1466086,-1.33771 H -4.9288309 V 31.000804 H -9.2859435 V 2.6031331 q 0,-1.75813311 1.7199129,-1.75813311 h 6.3063468 q 3.7073685,0 3.7073685,4.93041681 v 7.5293962 q 0,2.484318 -1.7199147,3.401605 1.8345759,0.917287 1.8345759,3.592707 z M -2.9795967,14.566082 q 1.1083883,0 1.1083883,-1.33771 V 6.4251617 q 0,-1.4141506 -0.9555071,-1.4141506 H -4.546628 q -0.3822029,0 -0.3822029,0.4204231 V 14.566082 Z M -12.88642,31.000804 h -4.357113 V 0.84499999 h 4.357113 z m -9.913395,-1.567031 q -0.152881,1.567031 -1.528811,1.567031 h -4.892196 q -1.567032,0 -1.681693,-1.567031 L -33.425054,0.84499999 h 4.624655 l 1.567031,25.56937101 q 0,0.267541 0.229323,0.267541 h 0.267542 q 0.267541,0 0.267541,-0.267541 L -24.90193,0.84499999 h 4.624654 z" />
        </g>
      </g>
    </g>
  </g>
</svg>
