<?xml version="1.0" encoding="UTF-8" standalone="no"?> <!-- Created with Vectornator for iOS (http://vectornator.io/) --><!DOCTYPE svg PUBLIC "-//W3C//DTD SVG 1.1//EN" "http://www.w3.org/Graphics/SVG/1.1/DTD/svg11.dtd">
<svg height="100%" style="fill-rule:nonzero;clip-rule:evenodd;stroke-linecap:round;stroke-linejoin:round;" xmlns:xlink="http://www.w3.org/1999/xlink" xmlns="http://www.w3.org/2000/svg" xml:space="preserve" width="100%" xmlns:vectornator="http://vectornator.io" version="1.1" viewBox="0 0 144.018 364.298">
<metadata>
<vectornator:setting key="GuidesVisible" value="1"/>
<vectornator:setting key="Units" value="Millimeters"/>
<vectornator:setting key="DynamicGuides" value="0"/>
<vectornator:setting key="TimeLapseWatermarkDisabled" value="0"/>
<vectornator:setting key="PencilOnly" value="0"/>
<vectornator:setting key="SnapToGuides" value="1"/>
<vectornator:setting key="doHistoryDisabled" value="0"/>
<vectornator:setting key="CMYKEnabledKey" value="0"/>
<vectornator:setting key="IsolateActiveLayer" value="0"/>
<vectornator:setting key="OutlineMode" value="0"/>
<vectornator:setting key="DimensionsVisible" value="1"/>
<vectornator:setting key="SnapToGrid" value="0"/>
<vectornator:setting key="RulersVisible" value="1"/>
<vectornator:setting key="SnapToEdges" value="0"/>
<vectornator:setting key="DisplayWhiteBackground" value="0"/>
<vectornator:setting key="SnapToPoints" value="0"/>
</metadata>
<defs/>
<g id="Background" vectornator:layerName="Background">
<path d="M0+0L144.018+0L144.018+364.297L0+364.297L0+0Z" opacity="1" fill="#cccccc"/>
</g>
<g id="Logo" vectornator:layerName="Logo">
<path d="M75.4832+356.297L73.4805+356.297L73.4805+348.246L75.4832+347.705L75.4832+356.297ZM95.5097+356.297L93.507+356.297L93.507+347.705L95.5097+348.246L95.5097+356.297ZM80.62+346.333L82.6026+345.803L83.4938+345.562L83.4938+345.032L84.1547+345.202L84.4851+345.292L84.4951+345.292L85.0759+345.452L85.4964+345.562L86.3876+345.803L88.3702+346.333L93.507+347.705L95.5097+348.246L95.5097+349.287L95.2493+350.259L93.507+349.788L89.5017+348.717L87.9196+348.296L87.8996+348.286L84.7554+347.445L84.4951+347.375L84.1647+347.285L84.0545+347.255L83.4938+347.105L82.5225+346.844L80.62+346.333ZM86.4677+346.844L85.4964+347.105L84.9357+347.255L84.8255+347.285L84.4951+347.375L84.2448+347.445L84.2348+347.445L81.0906+348.286L81.0706+348.296L81.0606+348.296L79.4885+348.717L75.4832+349.788L73.7409+350.259L73.4805+349.287L73.4805+348.246L75.4832+347.705L80.62+346.333L82.6026+345.803L83.4938+345.562L83.9143+345.452L84.4851+345.292L84.4951+345.292L84.8255+345.202L84.8356+345.202L85.4964+345.032L85.4964+345.562L86.3876+345.803L88.3702+346.333L86.4677+346.844ZM87.9196+348.296L89.5017+349.868L89.5017+356.297L87.4991+356.297L87.4991+348.286L89.5017+348.286L89.5017+348.717L87.9196+348.296ZM84.8356+345.202L85.0759+345.452L85.4964+345.873L85.907+346.283L86.4677+346.844L87.9196+348.286L87.9196+348.296L89.5017+349.868L89.5017+351.29L88.7908+352.001L87.4991+350.709L84.4951+347.695L84.2448+347.445L84.2348+347.445L84.0846+347.285L82.6026+345.803L83.4938+345.562L83.4938+344.551L83.8342+344.211L84.8255+345.202L84.8356+345.202ZM81.4911+356.297L79.4885+356.297L79.4885+349.868L81.0606+348.296L79.4885+348.717L79.4885+348.286L81.4911+348.286L81.4911+356.297ZM83.4938+345.873L83.9143+345.452L84.1547+345.202L84.4951+344.872L85.156+344.211L85.4964+344.551L85.4964+345.562L86.3876+345.803L84.9056+347.285L84.7554+347.445L84.4951+347.695L81.4911+350.709L80.1994+352.001L79.4885+351.29L79.4885+349.868L81.0606+348.296L81.0706+348.296L81.0706+348.286L82.5225+346.844L83.0832+346.283L83.4938+345.873ZM83.4938+334.268L85.4964+334.268L85.4964+347.285L83.4938+347.285L83.4938+334.268ZM84.4951+335.352L80.4898+333.039L80.4898+328.415L84.4951+326.102L88.5004+328.415L88.5004+333.04L84.4951+335.352ZM82.4924+331.883L84.4951+333.039L86.4978+331.883L86.4978+329.57L84.4951+328.415L82.4924+329.57L82.4924+331.883ZM107.013+356.297L100.201+356.297C99.0531+356.297+98.4791+355.711+98.4791+354.537L98.4791+326.102L102.842+326.102L102.842+351.743C102.842+352.024+102.97+352.164+103.225+352.164L107.014+352.164L107.013+356.297ZM71.0396+355.188C71.0396+355.647+71.0907+356.017+71.1927+356.297L66.7915+356.297C66.6895+356.093+66.6385+355.8+66.6385+355.417L66.6385+345.237C66.6385+344.344+66.2558+343.898+65.4903+343.898L63.5385+343.898L63.5385+356.298L59.1756+356.298L59.1756+327.862C59.1756+326.689+59.7497+326.102+60.8978+326.102L67.2125+326.102C69.6874+326.102+70.9248+327.747+70.9248+331.039L70.9248+338.578C70.9248+340.236+70.3507+341.372+69.2026+341.984C70.4273+342.596+71.0396+343.796+71.0396+345.582L71.0396+355.188ZM65.4903+339.841C66.2302+339.841+66.6002+339.394+66.6002+338.501L66.6002+331.689C66.6002+330.745+66.2813+330.273+65.6434+330.273L63.9212+330.273C63.6661+330.273+63.5385+330.414+63.5385+330.694L63.5385+339.841L65.4903+339.841ZM55.5704+356.298L51.2075+356.298L51.2075+326.102L55.5704+326.102L55.5704+356.298ZM45.6438+354.728C45.5418+355.774+45.0315+356.298+44.113+356.298L39.2143+356.298C38.1682+356.298+37.6069+355.774+37.5304+354.728L35.0045+326.102L39.6353+326.102L41.2044+351.705C41.2044+351.884+41.2809+351.973+41.434+351.973L41.7019+351.973C41.8805+351.973+41.9698+351.884+41.9698+351.705L43.5389+326.102L48.1697+326.102L45.6438+354.728Z" opacity="1" fill="#000000"/>
</g>
<g id="Module Name" vectornator:layerName="Module Name">
<g opacity="1">
<path d="M62.825+35.632C63.3583+35.632+63.625+35.2373+63.625+34.448L63.625+18.512C63.625+17.7227+63.3583+17.328+62.825+17.328L61.865+17.328C61.3103+17.328+61.033+17.7227+61.033+18.512L61.033+34.448C61.033+35.2373+61.3103+35.632+61.865+35.632L62.825+35.632ZM67.305+34.992C67.305+37.7227+66.2597+39.088+64.169+39.088L60.457+39.088C58.409+39.088+57.385+37.7227+57.385+34.992L57.385+17.968C57.385+15.216+58.409+13.84+60.457+13.84L64.169+13.84C66.2597+13.84+67.305+15.216+67.305+17.968L67.305+34.992Z" opacity="1" fill="#000000"/>
<path d="M77.609+34.992C77.609+37.7227+76.5637+39.088+74.473+39.088L68.777+39.088L68.777+35.632L73.001+35.632C73.6197+35.632+73.929+35.1947+73.929+34.32L73.929+31.248C73.929+30.3307+73.705+29.5627+73.257+28.944L69.641+24.112C69.0223+23.3013+68.713+22.2987+68.713+21.104L68.713+17.968C68.713+15.216+69.737+13.84+71.785+13.84L77.129+13.84L77.129+17.328L73.289+17.328C72.6703+17.328+72.361+17.7653+72.361+18.64L72.361+20.528C72.361+21.3813+72.5957+22.128+73.065+22.768L76.649+27.632C77.289+28.5067+77.609+29.52+77.609+30.672L77.609+34.992Z" opacity="1" fill="#000000"/>
<path d="M86.857+39.088L82.089+39.088C80.041+39.088+79.017+37.7227+79.017+34.992L79.017+17.968C79.017+15.216+80.041+13.84+82.089+13.84L86.857+13.84L86.857+17.328L83.497+17.328C82.9423+17.328+82.665+17.7227+82.665+18.512L82.665+34.448C82.665+35.2373+82.9423+35.632+83.497+35.632L86.857+35.632L86.857+39.088Z" opacity="1" fill="#000000"/>
</g>
</g>
<g id="Labels and Boxes" vectornator:layerName="Labels and Boxes">
<path d="M7.0875+262.399L136.93+262.399L136.93+263.817L7.0875+263.817L7.0875+262.399Z" opacity="1" fill="#000000"/>
<path d="M7.0875+216.399L136.93+216.399L136.93+217.817L7.0875+217.817L7.0875+216.399Z" opacity="1" fill="#000000"/>
<path stroke="#000000" stroke-width="1" d="M16.2231+237.119L29.9874+237.119C32.058+237.119+33.7365+238.798+33.7365+240.869L33.7365+254.632C33.7365+256.703+32.058+258.382+29.9874+258.382L16.2231+258.382C14.1525+258.382+12.474+256.703+12.474+254.632L12.474+240.869C12.474+238.798+14.1525+237.119+16.2231+237.119Z" fill="#f2f2f2" stroke-linecap="round" opacity="1" stroke-linejoin="round"/>
<path stroke="#000000" stroke-width="1" d="M48.6839+237.128L62.4481+237.128C64.5187+237.128+66.1972+238.807+66.1972+240.878L66.1972+254.641C66.1972+256.712+64.5187+258.391+62.4481+258.391L48.6839+258.391C46.6133+258.391+44.9348+256.712+44.9348+254.641L44.9348+240.878C44.9348+238.807+46.6133+237.128+48.6839+237.128Z" fill="#f2f2f2" stroke-linecap="round" opacity="1" stroke-linejoin="round"/>
<path stroke="#000000" stroke-width="1" d="M113.605+237.119L127.37+237.119C129.44+237.119+131.119+238.798+131.119+240.869L131.119+254.632C131.119+256.703+129.44+258.382+127.37+258.382L113.605+258.382C111.535+258.382+109.856+256.703+109.856+254.632L109.856+240.869C109.856+238.798+111.535+237.119+113.605+237.119Z" fill="#f2f2f2" stroke-linecap="round" opacity="1" stroke-linejoin="round"/>
<g opacity="1">
<path d="M17.0658+231.5C17.0338+231.828+16.8738+231.992+16.5858+231.992L15.0498+231.992C14.7218+231.992+14.5458+231.828+14.5218+231.5L13.7298+222.524L15.1818+222.524L15.6738+230.552C15.6738+230.608+15.6978+230.636+15.7458+230.636L15.8298+230.636C15.8858+230.636+15.9138+230.608+15.9138+230.552L16.4058+222.524L17.8578+222.524L17.0658+231.5Z" opacity="1" fill="#000000"/>
<path d="M18.9258+232.664L17.9538+232.664L20.3058+221.852L21.2898+221.852L18.9258+232.664Z" opacity="1" fill="#000000"/>
<path d="M23.5938+230.696C23.7938+230.696+23.8938+230.548+23.8938+230.252L23.8938+224.276C23.8938+223.98+23.7938+223.832+23.5938+223.832L23.2338+223.832C23.0258+223.832+22.9218+223.98+22.9218+224.276L22.9218+230.252C22.9218+230.548+23.0258+230.696+23.2338+230.696L23.5938+230.696ZM25.2738+230.456C25.2738+231.48+24.8818+231.992+24.0978+231.992L22.7058+231.992C21.9378+231.992+21.5538+231.48+21.5538+230.456L21.5538+224.072C21.5538+223.04+21.9378+222.524+22.7058+222.524L24.0978+222.524C24.8818+222.524+25.2738+223.04+25.2738+224.072L25.2738+230.456Z" opacity="1" fill="#000000"/>
<path d="M28.7418+231.992L26.9538+231.992C26.1858+231.992+25.8018+231.48+25.8018+230.456L25.8018+224.072C25.8018+223.04+26.1858+222.524+26.9538+222.524L28.7418+222.524L28.7418+223.832L27.4818+223.832C27.2738+223.832+27.1698+223.98+27.1698+224.276L27.1698+230.252C27.1698+230.548+27.2738+230.696+27.4818+230.696L28.7418+230.696L28.7418+231.992Z" opacity="1" fill="#000000"/>
<path d="M31.4658+231.992L30.0738+231.992L30.0738+223.832L29.0418+223.832L29.0418+222.524L32.4978+222.524L32.4978+223.832L31.4658+223.832L31.4658+231.992Z" opacity="1" fill="#000000"/>
</g>
<g opacity="1">
<path d="M51.198+230.443C51.198+231.467+50.806+231.979+50.022+231.979L47.886+231.979L47.886+230.683L49.47+230.683C49.702+230.683+49.818+230.519+49.818+230.191L49.818+229.039C49.818+228.695+49.734+228.407+49.566+228.175L48.21+226.363C47.978+226.059+47.862+225.683+47.862+225.235L47.862+224.059C47.862+223.027+48.246+222.511+49.014+222.511L51.018+222.511L51.018+223.819L49.578+223.819C49.346+223.819+49.23+223.983+49.23+224.311L49.23+225.019C49.23+225.339+49.318+225.619+49.494+225.859L50.838+227.683C51.078+228.011+51.198+228.391+51.198+228.823L51.198+230.443Z" opacity="1" fill="#000000"/>
<path d="M54.282+231.979L52.89+231.979L52.89+228.319C52.458+228.319+52.156+228.207+51.984+227.983C51.812+227.759+51.726+227.419+51.726+226.963L51.726+222.511L53.094+222.511L53.094+226.711C53.094+226.983+53.186+227.119+53.37+227.119L53.802+227.119C53.978+227.119+54.066+226.983+54.066+226.711L54.066+222.511L55.446+222.511L55.446+226.963C55.446+227.419+55.358+227.759+55.182+227.983C55.006+228.207+54.706+228.319+54.282+228.319L54.282+231.979Z" opacity="1" fill="#000000"/>
<path d="M59.886+231.619C59.886+231.859+59.774+231.979+59.55+231.979L58.962+231.979C58.73+231.979+58.59+231.867+58.542+231.643L57.402+226.375C57.386+226.327+57.362+226.303+57.33+226.303L57.282+226.303C57.25+226.303+57.234+226.327+57.234+226.375C57.234+226.439+57.236+226.523+57.24+226.627C57.244+226.731+57.246+226.881+57.246+227.077C57.246+227.273+57.248+227.525+57.252+227.833C57.256+228.141+57.258+228.527+57.258+228.991L57.258+231.979L55.974+231.979L55.974+222.883C55.974+222.635+56.09+222.511+56.322+222.511L57.114+222.511C57.346+222.511+57.486+222.623+57.534+222.847L58.482+227.575C58.506+227.655+58.538+227.695+58.578+227.695L58.626+227.695C58.658+227.695+58.674+227.671+58.674+227.623C58.674+227.575+58.672+227.515+58.668+227.443C58.664+227.371+58.662+227.253+58.662+227.089C58.662+226.925+58.66+226.701+58.656+226.417C58.652+226.133+58.65+225.755+58.65+225.283L58.65+222.511L59.886+222.511L59.886+231.619Z" opacity="1" fill="#000000"/>
<path d="M63.354+231.979L61.566+231.979C60.798+231.979+60.414+231.467+60.414+230.443L60.414+224.059C60.414+223.027+60.798+222.511+61.566+222.511L63.354+222.511L63.354+223.819L62.094+223.819C61.886+223.819+61.782+223.967+61.782+224.263L61.782+230.239C61.782+230.535+61.886+230.683+62.094+230.683L63.354+230.683L63.354+231.979Z" opacity="1" fill="#000000"/>
</g>
<g opacity="1">
<path d="M109.501+231.979L108.133+231.979L108.133+223.063C108.133+222.695+108.313+222.511+108.673+222.511L110.581+222.511C111.365+222.511+111.757+223.027+111.757+224.059L111.757+226.783C111.757+227.807+111.365+228.319+110.581+228.319L109.501+228.319L109.501+231.979ZM110.149+227.071C110.349+227.071+110.449+226.923+110.449+226.627L110.449+224.263C110.449+223.967+110.349+223.819+110.149+223.819L109.621+223.819C109.541+223.819+109.501+223.863+109.501+223.951L109.501+227.071L110.149+227.071Z" opacity="1" fill="#000000"/>
<path d="M117.709+230.443C117.709+231.467+117.325+231.979+116.557+231.979L113.377+231.979C112.609+231.979+112.225+231.467+112.225+230.443L112.225+222.511L113.545+222.511L113.545+230.239C113.545+230.535+113.645+230.683+113.845+230.683L114.325+230.683L114.325+222.511L115.585+222.511L115.585+230.683L116.077+230.683C116.277+230.683+116.377+230.535+116.377+230.239L116.377+222.511L117.709+222.511L117.709+230.443Z" opacity="1" fill="#000000"/>
<path d="M123.721+231.979L122.413+231.979L122.413+224.263C122.413+223.967+122.309+223.819+122.101+223.819L121.621+223.819L121.621+231.979L120.361+231.979L120.361+223.819L119.653+223.819C119.597+223.819+119.569+223.847+119.569+223.903L119.569+231.979L118.237+231.979L118.237+222.919C118.237+222.647+118.373+222.511+118.645+222.511L122.569+222.511C123.337+222.511+123.721+223.027+123.721+224.059L123.721+231.979Z" opacity="1" fill="#000000"/>
<path d="M128.617+231.979L126.829+231.979C126.061+231.979+125.677+231.467+125.677+230.443L125.677+224.059C125.677+223.027+126.061+222.511+126.829+222.511L128.617+222.511L128.617+223.819L127.357+223.819C127.149+223.819+127.045+223.967+127.045+224.263L127.045+230.239C127.045+230.535+127.149+230.683+127.357+230.683L128.617+230.683L128.617+231.979Z" opacity="1" fill="#000000"/>
<path d="M132.229+231.487C132.197+231.815+132.037+231.979+131.749+231.979L130.213+231.979C129.885+231.979+129.709+231.815+129.685+231.487L128.893+222.511L130.345+222.511L130.837+230.539C130.837+230.595+130.861+230.623+130.909+230.623L130.993+230.623C131.049+230.623+131.077+230.595+131.077+230.539L131.569+222.511L133.021+222.511L132.229+231.487Z" opacity="1" fill="#000000"/>
</g>
<path stroke="#000000" stroke-width="1" d="M8.88648+266.517L134.729+266.517C135.834+266.517+136.729+267.413+136.729+268.517L136.729+307.042C136.729+308.147+135.834+309.042+134.729+309.042L8.88648+309.042C7.78191+309.042+6.88648+308.147+6.88648+307.042L6.88648+268.517C6.88648+267.413+7.78191+266.517+8.88648+266.517Z" fill="#4d4d4d" stroke-linecap="round" opacity="1" stroke-linejoin="round"/>
<g opacity="1">
<path d="M19.9309+278.046C19.9309+279.07+19.5389+279.582+18.7549+279.582L16.6189+279.582L16.6189+278.286L18.2029+278.286C18.4349+278.286+18.5509+278.122+18.5509+277.794L18.5509+276.642C18.5509+276.298+18.4669+276.01+18.2989+275.778L16.9429+273.966C16.7109+273.662+16.5949+273.286+16.5949+272.838L16.5949+271.662C16.5949+270.63+16.9789+270.114+17.7469+270.114L19.7509+270.114L19.7509+271.422L18.3109+271.422C18.0789+271.422+17.9629+271.586+17.9629+271.914L17.9629+272.622C17.9629+272.942+18.0509+273.222+18.2269+273.462L19.5709+275.286C19.8109+275.614+19.9309+275.994+19.9309+276.426L19.9309+278.046Z" opacity="1" fill="#f2f2f2"/>
<path d="M21.8269+279.582L20.4589+279.582L20.4589+270.114L21.8269+270.114L21.8269+279.582Z" opacity="1" fill="#f2f2f2"/>
<path d="M26.2669+279.222C26.2669+279.462+26.1549+279.582+25.9309+279.582L25.3429+279.582C25.1109+279.582+24.9709+279.47+24.9229+279.246L23.7829+273.978C23.7669+273.93+23.7429+273.906+23.7109+273.906L23.6629+273.906C23.6309+273.906+23.6149+273.93+23.6149+273.978C23.6149+274.042+23.6169+274.126+23.6209+274.23C23.6249+274.334+23.6269+274.484+23.6269+274.68C23.6269+274.876+23.6289+275.128+23.6329+275.436C23.6369+275.744+23.6389+276.13+23.6389+276.594L23.6389+279.582L22.3549+279.582L22.3549+270.486C22.3549+270.238+22.4709+270.114+22.7029+270.114L23.4949+270.114C23.7269+270.114+23.8669+270.226+23.9149+270.45L24.8629+275.178C24.8869+275.258+24.9189+275.298+24.9589+275.298L25.0069+275.298C25.0389+275.298+25.0549+275.274+25.0549+275.226C25.0549+275.178+25.0529+275.118+25.0489+275.046C25.0449+274.974+25.0429+274.856+25.0429+274.692C25.0429+274.528+25.0409+274.304+25.0369+274.02C25.0329+273.736+25.0309+273.358+25.0309+272.886L25.0309+270.114L26.2669+270.114L26.2669+279.222Z" opacity="1" fill="#f2f2f2"/>
<path d="M29.6749+279.582L27.3469+279.582C26.9789+279.582+26.7949+279.398+26.7949+279.03L26.7949+270.666C26.7949+270.298+26.9789+270.114+27.3469+270.114L29.6749+270.114L29.6749+271.422L28.2829+271.422C28.2029+271.422+28.1629+271.466+28.1629+271.554L28.1629+274.158L29.6749+274.158L29.6749+275.418L28.1629+275.418L28.1629+278.154C28.1629+278.242+28.2029+278.286+28.2829+278.286L29.6749+278.286L29.6749+279.582Z" opacity="1" fill="#f2f2f2"/>
</g>
<g opacity="1">
<path d="M51.3116+277.648C51.3116+278.672+50.9196+279.184+50.1356+279.184L47.9996+279.184L47.9996+277.888L49.5836+277.888C49.8156+277.888+49.9316+277.724+49.9316+277.396L49.9316+276.244C49.9316+275.9+49.8476+275.612+49.6796+275.38L48.3236+273.568C48.0916+273.264+47.9756+272.888+47.9756+272.44L47.9756+271.264C47.9756+270.232+48.3596+269.716+49.1276+269.716L51.1316+269.716L51.1316+271.024L49.6916+271.024C49.4596+271.024+49.3436+271.188+49.3436+271.516L49.3436+272.224C49.3436+272.544+49.4316+272.824+49.6076+273.064L50.9516+274.888C51.1916+275.216+51.3116+275.596+51.3116+276.028L51.3116+277.648Z" opacity="1" fill="#f2f2f2"/>
<path d="M54.2876+280.504L53.1116+280.504L53.1116+279.088L52.9796+279.088C52.2196+279.088+51.8396+278.572+51.8396+277.54L51.8396+271.264C51.8396+270.232+52.2236+269.716+52.9916+269.716L54.3836+269.716C55.1676+269.716+55.5596+270.232+55.5596+271.264L55.5596+277.54C55.5596+278.572+55.1716+279.088+54.3956+279.088L54.2876+279.088L54.2876+280.504ZM53.8796+277.888C54.0796+277.888+54.1796+277.74+54.1796+277.444L54.1796+271.468C54.1796+271.172+54.0796+271.024+53.8796+271.024L53.5196+271.024C53.3116+271.024+53.2076+271.172+53.2076+271.468L53.2076+277.444C53.2076+277.74+53.3116+277.888+53.5196+277.888L53.8796+277.888Z" opacity="1" fill="#f2f2f2"/>
<path d="M59.8076+278.836C59.8076+278.98+59.8236+279.096+59.8556+279.184L58.4756+279.184C58.4436+279.12+58.4276+279.028+58.4276+278.908L58.4276+275.716C58.4276+275.436+58.3076+275.296+58.0676+275.296L57.4556+275.296L57.4556+279.184L56.0876+279.184L56.0876+270.268C56.0876+269.9+56.2676+269.716+56.6276+269.716L58.6076+269.716C59.3836+269.716+59.7716+270.232+59.7716+271.264L59.7716+273.628C59.7716+274.148+59.5916+274.504+59.2316+274.696C59.6156+274.888+59.8076+275.264+59.8076+275.824L59.8076+278.836ZM58.0676+274.024C58.2996+274.024+58.4156+273.884+58.4156+273.604L58.4156+271.468C58.4156+271.172+58.3156+271.024+58.1156+271.024L57.5756+271.024C57.4956+271.024+57.4556+271.068+57.4556+271.156L57.4556+274.024L58.0676+274.024Z" opacity="1" fill="#f2f2f2"/>
<path d="M63.2156+279.184L60.8876+279.184C60.5196+279.184+60.3356+279+60.3356+278.632L60.3356+270.268C60.3356+269.9+60.5196+269.716+60.8876+269.716L63.2156+269.716L63.2156+271.024L61.8236+271.024C61.7436+271.024+61.7036+271.068+61.7036+271.156L61.7036+273.76L63.2156+273.76L63.2156+275.02L61.7036+275.02L61.7036+277.756C61.7036+277.844+61.7436+277.888+61.8236+277.888L63.2156+277.888L63.2156+279.184Z" opacity="1" fill="#f2f2f2"/>
</g>
<g opacity="1">
<path d="M85.6624+280.379L84.2704+280.379L84.2704+272.219L83.2384+272.219L83.2384+270.911L86.6944+270.911L86.6944+272.219L85.6624+272.219L85.6624+280.379Z" opacity="1" fill="#f2f2f2"/>
<path d="M90.7984+280.031C90.7984+280.175+90.8144+280.291+90.8464+280.379L89.4664+280.379C89.4344+280.315+89.4184+280.223+89.4184+280.103L89.4184+276.911C89.4184+276.631+89.2984+276.491+89.0584+276.491L88.4464+276.491L88.4464+280.379L87.0784+280.379L87.0784+271.463C87.0784+271.095+87.2584+270.911+87.6184+270.911L89.5984+270.911C90.3744+270.911+90.7624+271.427+90.7624+272.459L90.7624+274.823C90.7624+275.343+90.5824+275.699+90.2224+275.891C90.6064+276.083+90.7984+276.459+90.7984+277.019L90.7984+280.031ZM89.0584+275.219C89.2904+275.219+89.4064+275.079+89.4064+274.799L89.4064+272.663C89.4064+272.367+89.3064+272.219+89.1064+272.219L88.5664+272.219C88.4864+272.219+88.4464+272.263+88.4464+272.351L88.4464+275.219L89.0584+275.219Z" opacity="1" fill="#f2f2f2"/>
<path d="M92.6944+280.379L91.3264+280.379L91.3264+270.911L92.6944+270.911L92.6944+280.379Z" opacity="1" fill="#f2f2f2"/>
</g>
<g opacity="1">
<path d="M117.313+278.445C117.313+279.469+116.921+279.981+116.137+279.981L114.001+279.981L114.001+278.685L115.585+278.685C115.817+278.685+115.933+278.521+115.933+278.193L115.933+277.041C115.933+276.697+115.849+276.409+115.681+276.177L114.325+274.365C114.093+274.061+113.977+273.685+113.977+273.237L113.977+272.061C113.977+271.029+114.361+270.513+115.129+270.513L117.133+270.513L117.133+271.821L115.693+271.821C115.461+271.821+115.345+271.985+115.345+272.313L115.345+273.021C115.345+273.341+115.433+273.621+115.609+273.861L116.953+275.685C117.193+276.013+117.313+276.393+117.313+276.825L117.313+278.445Z" opacity="1" fill="#f2f2f2"/>
<path d="M121.801+279.981L120.361+279.981L120.145+276.477L119.341+276.477L119.137+279.981L117.673+279.981L118.465+271.005C118.489+270.677+118.649+270.513+118.945+270.513L120.493+270.513C120.797+270.513+120.969+270.677+121.009+271.005L121.801+279.981ZM119.713+271.821C119.649+271.821+119.617+271.849+119.617+271.905L119.413+275.217L120.073+275.217L119.881+271.905C119.881+271.849+119.849+271.821+119.785+271.821L119.713+271.821Z" opacity="1" fill="#f2f2f2"/>
<path d="M127.657+278.445C127.657+279.469+127.273+279.981+126.505+279.981L123.325+279.981C122.557+279.981+122.173+279.469+122.173+278.445L122.173+270.513L123.493+270.513L123.493+278.241C123.493+278.537+123.593+278.685+123.793+278.685L124.273+278.685L124.273+270.513L125.533+270.513L125.533+278.685L126.025+278.685C126.225+278.685+126.325+278.537+126.325+278.241L126.325+270.513L127.657+270.513L127.657+278.445Z" opacity="1" fill="#f2f2f2"/>
</g>
<g opacity="1">
<path d="M97.1215+178.808L95.7535+178.808L95.7535+169.892C95.7535+169.524+95.9335+169.34+96.2935+169.34L98.2015+169.34C98.9855+169.34+99.3775+169.856+99.3775+170.888L99.3775+173.612C99.3775+174.636+98.9855+175.148+98.2015+175.148L97.1215+175.148L97.1215+178.808ZM97.7695+173.9C97.9695+173.9+98.0695+173.752+98.0695+173.456L98.0695+171.092C98.0695+170.796+97.9695+170.648+97.7695+170.648L97.2415+170.648C97.1615+170.648+97.1215+170.692+97.1215+170.78L97.1215+173.9L97.7695+173.9Z" opacity="1" fill="#000000"/>
<path d="M105.329+177.272C105.329+178.296+104.946+178.808+104.177+178.808L100.997+178.808C100.229+178.808+99.8455+178.296+99.8455+177.272L99.8455+169.34L101.165+169.34L101.165+177.068C101.165+177.364+101.265+177.512+101.465+177.512L101.945+177.512L101.945+169.34L103.206+169.34L103.206+177.512L103.697+177.512C103.898+177.512+103.997+177.364+103.997+177.068L103.997+169.34L105.329+169.34L105.329+177.272Z" opacity="1" fill="#000000"/>
<path d="M111.341+178.808L110.033+178.808L110.033+171.092C110.033+170.796+109.93+170.648+109.721+170.648L109.241+170.648L109.241+178.808L107.981+178.808L107.981+170.648L107.273+170.648C107.217+170.648+107.189+170.676+107.189+170.732L107.189+178.808L105.857+178.808L105.857+169.748C105.857+169.476+105.993+169.34+106.265+169.34L110.189+169.34C110.958+169.34+111.341+169.856+111.341+170.888L111.341+178.808Z" opacity="1" fill="#000000"/>
<path d="M116.237+178.808L114.45+178.808C113.681+178.808+113.297+178.296+113.297+177.272L113.297+170.888C113.297+169.856+113.681+169.34+114.45+169.34L116.237+169.34L116.237+170.648L114.977+170.648C114.769+170.648+114.665+170.796+114.665+171.092L114.665+177.068C114.665+177.364+114.769+177.512+114.977+177.512L116.237+177.512L116.237+178.808Z" opacity="1" fill="#000000"/>
<path d="M119.849+178.316C119.817+178.644+119.658+178.808+119.369+178.808L117.833+178.808C117.505+178.808+117.33+178.644+117.305+178.316L116.513+169.34L117.965+169.34L118.457+177.368C118.457+177.424+118.481+177.452+118.529+177.452L118.613+177.452C118.67+177.452+118.697+177.424+118.697+177.368L119.189+169.34L120.641+169.34L119.849+178.316Z" opacity="1" fill="#000000"/>
</g>
<g opacity="1">
<path d="M31.1925+134.588L29.8245+134.588L29.8245+125.672C29.8245+125.304+30.0085+125.12+30.3765+125.12L32.5605+125.12L32.5605+126.428L31.3125+126.428C31.2325+126.428+31.1925+126.472+31.1925+126.56L31.1925+129.176L32.5605+129.176L32.5605+130.436L31.1925+130.436L31.1925+134.588Z" opacity="1" fill="#000000"/>
<path d="M34.3725+134.588L33.0045+134.588L33.0045+125.12L34.3725+125.12L34.3725+134.588Z" opacity="1" fill="#000000"/>
<path d="M38.8125+134.228C38.8125+134.468+38.7005+134.588+38.4765+134.588L37.8885+134.588C37.6565+134.588+37.5165+134.476+37.4685+134.252L36.3285+128.984C36.3125+128.936+36.2885+128.912+36.2565+128.912L36.2085+128.912C36.1765+128.912+36.1605+128.936+36.1605+128.984C36.1605+129.048+36.1625+129.132+36.1665+129.236C36.1705+129.34+36.1725+129.49+36.1725+129.686C36.1725+129.882+36.1745+130.134+36.1785+130.442C36.1825+130.75+36.1845+131.136+36.1845+131.6L36.1845+134.588L34.9005+134.588L34.9005+125.492C34.9005+125.244+35.0165+125.12+35.2485+125.12L36.0405+125.12C36.2725+125.12+36.4125+125.232+36.4605+125.456L37.4085+130.184C37.4325+130.264+37.4645+130.304+37.5045+130.304L37.5525+130.304C37.5845+130.304+37.6005+130.28+37.6005+130.232C37.6005+130.184+37.5985+130.124+37.5945+130.052C37.5905+129.98+37.5885+129.862+37.5885+129.698C37.5885+129.534+37.5865+129.31+37.5825+129.026C37.5785+128.742+37.5765+128.364+37.5765+127.892L37.5765+125.12L38.8125+125.12L38.8125+134.228Z" opacity="1" fill="#000000"/>
<path d="M42.2205+134.588L39.8925+134.588C39.5245+134.588+39.3405+134.404+39.3405+134.036L39.3405+125.672C39.3405+125.304+39.5245+125.12+39.8925+125.12L42.2205+125.12L42.2205+126.428L40.8285+126.428C40.7485+126.428+40.7085+126.472+40.7085+126.56L40.7085+129.164L42.2205+129.164L42.2205+130.424L40.7085+130.424L40.7085+133.16C40.7085+133.248+40.7485+133.292+40.8285+133.292L42.2205+133.292L42.2205+134.588Z" opacity="1" fill="#000000"/>
</g>
<g opacity="1">
<path d="M96.546+132.861L95.178+132.861L95.178+123.945C95.178+123.577+95.358+123.393+95.718+123.393L97.626+123.393C98.41+123.393+98.802+123.909+98.802+124.941L98.802+127.665C98.802+128.689+98.41+129.201+97.626+129.201L96.546+129.201L96.546+132.861ZM97.194+127.953C97.394+127.953+97.494+127.805+97.494+127.509L97.494+125.145C97.494+124.849+97.394+124.701+97.194+124.701L96.666+124.701C96.586+124.701+96.546+124.745+96.546+124.833L96.546+127.953L97.194+127.953Z" opacity="1" fill="#000000"/>
<path d="M100.578+132.861L99.27+132.861L99.27+131.169L100.578+131.169L100.578+132.861Z" opacity="1" fill="#000000"/>
<path d="M106.578+131.325C106.578+132.349+106.194+132.861+105.426+132.861L102.246+132.861C101.478+132.861+101.094+132.349+101.094+131.325L101.094+123.393L102.414+123.393L102.414+131.121C102.414+131.417+102.514+131.565+102.714+131.565L103.194+131.565L103.194+123.393L104.454+123.393L104.454+131.565L104.946+131.565C105.146+131.565+105.246+131.417+105.246+131.121L105.246+123.393L106.578+123.393L106.578+131.325Z" opacity="1" fill="#000000"/>
<path d="M108.474+132.861L107.106+132.861L107.106+123.393L108.474+123.393L108.474+132.861Z" opacity="1" fill="#000000"/>
<path d="M110.934+131.565C111.206+131.565+111.342+131.389+111.342+131.037L111.342+125.229C111.342+124.877+111.206+124.701+110.934+124.701L110.454+124.701C110.398+124.701+110.37+124.729+110.37+124.785L110.37+131.469C110.37+131.533+110.398+131.565+110.454+131.565L110.934+131.565ZM112.722+131.049C112.722+132.257+112.214+132.861+111.198+132.861L109.41+132.861C109.138+132.861+109.002+132.725+109.002+132.453L109.002+123.801C109.002+123.529+109.138+123.393+109.41+123.393L111.198+123.393C112.214+123.393+112.722+123.997+112.722+125.205L112.722+131.049Z" opacity="1" fill="#000000"/>
<path d="M115.53+132.861L114.138+132.861L114.138+124.701L113.106+124.701L113.106+123.393L116.562+123.393L116.562+124.701L115.53+124.701L115.53+132.861Z" opacity="1" fill="#000000"/>
<path d="M120.63+132.861L119.274+132.861L119.274+128.697L118.314+128.697L118.314+132.861L116.946+132.861L116.946+123.393L118.314+123.393L118.314+127.437L119.274+127.437L119.274+123.393L120.63+123.393L120.63+132.861Z" opacity="1" fill="#000000"/>
</g>
<g opacity="1">
<path d="M64.153+69.1285L62.329+69.1285L62.329+57.2405C62.329+56.7499+62.5743+56.5045+63.065+56.5045L65.977+56.5045L65.977+58.2485L64.313+58.2485C64.2063+58.2485+64.153+58.3072+64.153+58.4245L64.153+61.9125L65.977+61.9125L65.977+63.5925L64.153+63.5925L64.153+69.1285Z" opacity="1" fill="#000000"/>
<path d="M71.529+68.6645C71.529+68.8565+71.5503+69.0112+71.593+69.1285L69.753+69.1285C69.7103+69.0432+69.689+68.9205+69.689+68.7605L69.689+64.5045C69.689+64.1312+69.529+63.9445+69.209+63.9445L68.393+63.9445L68.393+69.1285L66.569+69.1285L66.569+57.2405C66.569+56.7499+66.809+56.5045+67.289+56.5045L69.929+56.5045C70.9637+56.5045+71.481+57.1925+71.481+58.5685L71.481+61.7205C71.481+62.4139+71.241+62.8885+70.761+63.1445C71.273+63.4005+71.529+63.9019+71.529+64.6485L71.529+68.6645ZM69.209+62.2485C69.5183+62.2485+69.673+62.0619+69.673+61.6885L69.673+58.8405C69.673+58.4459+69.5397+58.2485+69.273+58.2485L68.553+58.2485C68.4463+58.2485+68.393+58.3072+68.393+58.4245L68.393+62.2485L69.209+62.2485Z" opacity="1" fill="#000000"/>
<path d="M76.073+69.1285L72.969+69.1285C72.4783+69.1285+72.233+68.8832+72.233+68.3925L72.233+57.2405C72.233+56.7499+72.4783+56.5045+72.969+56.5045L76.073+56.5045L76.073+58.2485L74.217+58.2485C74.1103+58.2485+74.057+58.3072+74.057+58.4245L74.057+61.8965L76.073+61.8965L76.073+63.5765L74.057+63.5765L74.057+67.2245C74.057+67.3419+74.1103+67.4005+74.217+67.4005L76.073+67.4005L76.073+69.1285Z" opacity="1" fill="#000000"/>
<path d="M79.993+70.8885L78.425+70.8885L78.425+69.0005L78.249+69.0005C77.2357+69.0005+76.729+68.3125+76.729+66.9365L76.729+58.5685C76.729+57.1925+77.241+56.5045+78.265+56.5045L80.121+56.5045C81.1663+56.5045+81.689+57.1925+81.689+58.5685L81.689+66.9365C81.689+68.3125+81.1717+69.0005+80.137+69.0005L79.993+69.0005L79.993+70.8885ZM79.449+67.4005C79.7157+67.4005+79.849+67.2032+79.849+66.8085L79.849+58.8405C79.849+58.4459+79.7157+58.2485+79.449+58.2485L78.969+58.2485C78.6917+58.2485+78.553+58.4459+78.553+58.8405L78.553+66.8085C78.553+67.2032+78.6917+67.4005+78.969+67.4005L79.449+67.4005Z" opacity="1" fill="#000000"/>
</g>
</g>
<g id="components" vectornator:layerName="components" visibility="hidden">
<path d="M50.7465+95.2495C50.7465+83.504+60.266+73.9824+72.009+73.9824C83.752+73.9824+93.2715+83.504+93.2715+95.2495C93.2715+106.995+83.752+116.517+72.009+116.517C60.266+116.517+50.7465+106.995+50.7465+95.2495Z" opacity="1" fill="#ff0000"/>
<path d="M21.8295+152.355C21.8295+144.527+28.1759+138.18+36.0045+138.18C43.8331+138.18+50.1795+144.527+50.1795+152.355C50.1795+160.184+43.8331+166.53+36.0045+166.53C28.1759+166.53+21.8295+160.184+21.8295+152.355Z" opacity="1" fill="#ff0000"/>
<path d="M93.8385+196.575C93.8385+188.746+100.185+182.4+108.014+182.4C115.842+182.4+122.188+188.746+122.188+196.575C122.188+204.403+115.842+210.75+108.014+210.75C100.185+210.75+93.8385+204.403+93.8385+196.575Z" opacity="1" fill="#ff0000"/>
<path d="M93.8385+150.628C93.8385+142.799+100.185+136.453+108.014+136.453C115.842+136.453+122.188+142.799+122.188+150.628C122.188+158.457+115.842+164.803+108.014+164.803C100.185+164.803+93.8385+158.457+93.8385+150.628Z" opacity="1" fill="#ff0000"/>
<path d="M12.474+295.352C12.474+289.481+17.2339+284.719+23.1053+284.719C28.9768+284.719+33.7365+289.481+33.7365+295.352C33.7365+301.223+28.9768+305.982+23.1053+305.982C17.2339+305.982+12.474+301.223+12.474+295.352Z" opacity="1" fill="#0000ff"/>
<path d="M44.9348+295.352C44.9348+289.481+49.6947+284.719+55.5661+284.719C61.4375+284.719+66.1972+289.481+66.1972+295.352C66.1972+301.223+61.4375+305.982+55.5661+305.982C49.6947+305.982+44.9348+301.223+44.9348+295.352Z" opacity="1" fill="#0000ff"/>
<path d="M77.3955+295.352C77.3955+289.481+82.1554+284.719+88.0268+284.719C93.8983+284.719+98.658+289.481+98.658+295.352C98.658+301.223+93.8983+305.982+88.0268+305.982C82.1554+305.982+77.3955+301.223+77.3955+295.352Z" opacity="1" fill="#0000ff"/>
<path d="M109.856+295.352C109.856+289.481+114.616+284.719+120.488+284.719C126.359+284.719+131.119+289.481+131.119+295.352C131.119+301.223+126.359+305.982+120.488+305.982C114.616+305.982+109.856+301.223+109.856+295.352Z" opacity="1" fill="#0000ff"/>
<path d="M109.856+247.751C109.856+241.879+114.616+237.119+120.487+237.119C126.359+237.119+131.119+241.879+131.119+247.751C131.119+253.622+126.359+258.382+120.487+258.382C114.616+258.382+109.856+253.622+109.856+247.751Z" opacity="1" fill="#00ff00"/>
<path d="M44.9348+247.751C44.9348+241.879+49.6945+237.119+55.566+237.119C61.4375+237.119+66.1973+241.879+66.1973+247.751C66.1973+253.622+61.4375+258.382+55.566+258.382C49.6945+258.382+44.9348+253.622+44.9348+247.751Z" opacity="1" fill="#00ff00"/>
<path d="M12.474+247.751C12.474+241.879+17.2338+237.119+23.1052+237.119C28.9767+237.119+33.7365+241.879+33.7365+247.751C33.7365+253.622+28.9767+258.382+23.1052+258.382C17.2338+258.382+12.474+253.622+12.474+247.751Z" opacity="1" fill="#00ff00"/>
</g>
</svg>
